<svg width="736" height="685" viewBox="0 0 736 685" fill="none" xmlns="http://www.w3.org/2000/svg">
<g clip-path="url(#clip0_139_154)">
<path d="M708.377 82.1427H715.678C721.271 39.2042 678.237 6.59711 628.879 2.61646C648.263 7.0638 666.003 16.883 680.063 30.9485C694.124 45.014 703.937 62.7566 708.377 82.1427V82.1427Z" fill="#F2F2F2"/>
<path d="M594.77 210.254C590.639 210.203 586.68 210.064 582.896 209.835C586.824 210.441 590.809 210.581 594.77 210.254V210.254Z" fill="#F2F2F2"/>
<path d="M502.906 105.49C503.859 48.9314 548.927 2.90271 605.495 2.90271C613.263 2.0778 621.092 1.98197 628.879 2.61646C613.433 -0.88876 597.396 -0.871867 581.957 2.66589C566.518 6.20364 552.074 13.1715 539.695 23.0527C527.316 32.9339 517.321 45.475 510.45 59.746C503.579 74.0169 500.008 89.6515 500.003 105.49C500.003 159.121 501.922 204.875 582.895 209.835C541.871 203.605 502.158 149.902 502.906 105.49Z" fill="#F2F2F2"/>
<path d="M707.168 107.143C688.624 138.865 615.716 162.13 605.495 208.079C602.017 209.221 598.418 209.951 594.77 210.253C598.13 210.294 601.596 210.281 605.198 210.198C662.813 210.198 710.072 164.537 710.965 107.143L707.168 107.143Z" fill="#F2F2F2"/>
<path d="M613.774 182.58C600.29 153.329 594.386 121.805 598.521 87.2682C597.882 83.2505 600.122 79.2243 603.527 78.268L664.572 61.2131C667.98 60.266 671.261 62.7498 671.907 66.7654L687.16 162.077C687.799 166.095 685.56 170.121 682.154 171.077L621.109 188.132C617.702 189.079 614.42 186.595 613.774 182.58Z" fill="#F2F2F2"/>
<path d="M642.687 71.7572C643.567 64.9475 639.672 58.8317 633.988 58.0972C628.304 57.3628 622.982 62.2879 622.102 69.0976C621.223 75.9074 625.117 82.0231 630.801 82.7576C636.486 83.492 641.807 78.567 642.687 71.7572Z" fill="#F2F2F2"/>
<path d="M531.053 135.97C517.569 106.719 511.665 75.1947 515.8 40.6584C515.161 36.6406 517.401 32.6144 520.807 31.6582L581.852 14.6033C585.259 13.6561 588.54 16.1399 589.187 20.1555L604.44 115.467C605.078 119.485 602.839 123.511 599.433 124.467L538.388 141.522C534.981 142.469 531.7 139.985 531.053 135.97Z" fill="#F2F2F2"/>
<path d="M559.966 25.1474C560.846 18.3376 556.951 12.2218 551.267 11.4874C545.583 10.7529 540.262 15.678 539.382 22.4878C538.502 29.2975 542.397 35.4133 548.081 36.1477C553.765 36.8821 559.086 31.9571 559.966 25.1474Z" fill="#F2F2F2"/>
<path d="M614.606 452.637H0V454.637H614.606V452.637Z" fill="#3F3D56"/>
<path d="M250 216.637C249.275 214.1 259.411 237.357 257 237.637C246.017 238.897 221.681 244.577 214.032 247.637C213.688 247.597 213.343 247.557 213.009 247.507C212.188 247.417 211.388 247.287 210.597 247.137C192.786 243.767 179.311 229.137 178.946 211.477C178.926 211.227 178.926 210.967 178.926 210.717C178.924 209.498 178.988 208.28 179.119 207.067C179.286 205.412 179.574 203.771 179.98 202.157L179.939 202.147C172.847 195.487 175.836 183.137 184.873 177.927C188.8 175.67 193.155 174.256 197.659 173.777C198.881 173.645 200.109 173.578 201.337 173.577H212.877C215.265 173.063 217.685 172.712 220.121 172.527H220.141C243.373 170.757 261.691 184.917 259.979 202.147C259.969 202.167 259.948 202.187 259.938 202.207C259.442 202.947 259.006 203.647 258.621 204.317C258.246 204.947 257.932 205.547 257.659 206.117C255.541 210.517 260.984 216.054 257.375 217.087C252.575 218.462 270 263.637 251 263.637C260.242 266.265 252 223.637 250 216.637Z" fill="#2F2E41"/>
<path d="M356.007 653.298L370.991 653.171L377.622 594.033L355.51 594.219L356.007 653.298Z" fill="#FFB6B6"/>
<path d="M404 677.124C404.013 678.9 403.321 680.609 402.076 681.875C400.831 683.142 399.135 683.863 397.358 683.881L367.569 684.13L362.354 673.559L360.438 684.183L349.198 684.285L352.037 646.391L355.947 646.13L371.898 645.031L377.044 644.686L377.134 655.408L401.064 671.639C401.961 672.248 402.696 673.065 403.208 674.02C403.719 674.975 403.991 676.04 404 677.124Z" fill="#2F2E41"/>
<path d="M375 623.637C369.04 622.917 354 621.637 354 621.637C354 621.637 346.9 606.817 348.05 602.207C349.18 597.577 352 596.637 349.38 594.217C343 570.637 344.02 532.337 344.02 532.337C344.02 532.337 309.68 515.707 274.91 496.457C240.92 477.627 206.52 456.297 203.41 445.547C201.357 437.859 199.979 430.006 199.29 422.077C198.77 416.877 198.45 411.777 198.25 407.207C197.78 396.747 197.97 389.017 197.97 389.017L241.3 388.297L270 387.637H273V392.637L280.54 405.457C280.54 405.457 293.57 420.607 292.04 422.017C290.19 423.727 290.75 425.247 297.32 426.487C299.188 426.815 301.092 426.892 302.98 426.717C313.59 425.907 318.03 431.977 318.29 433.307C320.07 442.697 337.92 463.097 354.64 480.507H354.65C370.08 496.587 384.54 510.107 384.54 510.107L385.36 527.357L389.21 608.007C389.21 608.007 381.99 603.967 388.44 612.677C394.89 621.397 380.96 624.347 375 623.637Z" fill="#2F2E41"/>
<path d="M537.561 436.107L543.678 422.427L492.655 391.8L483.627 411.987L537.561 436.107Z" fill="#FFB6B6"/>
<path d="M579.189 402.372C580.809 403.098 582.076 404.438 582.71 406.097C583.344 407.756 583.294 409.599 582.572 411.222L570.407 438.416L558.625 438.762L567.491 444.923L562.908 455.187L529.627 436.844L531.017 433.18L536.652 418.217L538.479 413.394L548.267 417.771L572.98 402.76C573.906 402.198 574.955 401.869 576.037 401.801C577.118 401.734 578.2 401.929 579.189 402.372V402.372Z" fill="#2F2E41"/>
<path d="M511.315 402.998C511.281 403.076 511.239 403.147 511.204 403.211C508.416 408.327 503.841 420.166 503.556 420.897C503.548 420.91 503.543 420.924 503.542 420.939C503.542 420.939 488.447 420.161 484.589 417.394C480.724 414.605 486.572 419.014 477.66 413.182C473.051 410.151 457.265 405.418 443.125 401.551C429.97 397.953 418.249 395.124 418.249 395.124C418.249 395.124 407.888 404.554 392.876 417.586L392.869 417.593C378.926 429.67 360.959 444.857 343.547 458.456C306.269 469.421 266.924 478.921 257.088 473.583C250.174 469.643 243.616 465.108 237.489 460.029L247.618 433.481L274.403 405.43L302.599 393.974L313.629 389.489L329.073 383.221L412.694 349.247L505.297 381.322C505.297 381.322 498.847 386.533 509.344 383.784C519.699 381.079 514.228 397.513 511.315 402.998Z" fill="#2F2E41"/>
<path d="M219 248.637H249L253.723 259.063L273.814 268.015C276.427 269.181 278.729 270.945 280.535 273.164C282.341 275.383 283.601 277.996 284.211 280.791C291.446 313.863 282.295 320.734 282 331.637C281 368.637 275.847 375.997 276.424 385.131C276.596 387.865 278.265 398.673 283.632 397.655C289 396.637 286.107 400.91 287.377 402.572C288.475 404.007 294.247 402.102 290.624 406.87C287 411.637 302.491 424.637 293 424.637C275 424.637 239 433.637 225 433.637C211 433.637 200.181 437.788 194 437.637C190.233 437.545 191.411 419.979 192.916 404.766C193.257 401.321 199.872 401.411 193.936 395.024C188 388.637 194.987 385.318 195 383.637C195.013 381.852 198.365 377.353 194.183 369.995C190 362.638 193.856 365.682 193.674 363.372C192.274 345.567 190.268 322.864 190.268 322.864L181.424 297.975C179.164 291.613 179.463 284.621 182.258 278.475C185.053 272.33 190.126 267.51 196.407 265.032L206.78 260.94L219 248.637Z" fill="#B2D8F6"/>
<path d="M429.695 239.457C429.029 240.701 428.1 241.785 426.973 242.634C425.846 243.484 424.548 244.078 423.169 244.377C421.79 244.675 420.362 244.67 418.985 244.363C417.607 244.055 416.313 243.452 415.192 242.596L372.931 266.521L363.439 256.459L413.841 228.409C415.424 226.629 417.604 225.491 419.97 225.211C422.335 224.932 424.721 225.529 426.675 226.891C428.63 228.253 430.017 230.284 430.573 232.6C431.13 234.916 430.817 237.356 429.695 239.457V239.457Z" fill="#FFB6B6"/>
<path d="M239.414 295.933L238.77 303.638L322.904 302.556L406.65 255.476L394.407 236.631L320.799 267.58L268.483 268.641C261.121 268.79 254.074 271.663 248.706 276.703C243.337 281.743 240.027 288.594 239.414 295.933V295.933Z" fill="#B2D8F6"/>
<path d="M229.261 243.145C244.351 243.145 256.583 230.912 256.583 215.822C256.583 200.733 244.351 188.5 229.261 188.5C214.172 188.5 201.939 200.733 201.939 215.822C201.939 230.912 214.172 243.145 229.261 243.145Z" fill="#FFB6B6"/>
<path d="M259.979 203.637C259.523 203.877 259.077 204.097 258.621 204.317C258.145 204.547 257.669 204.777 257.193 204.987C248.044 209.137 240.597 209.597 236.078 203.637C235.957 200.501 235.253 197.415 234.001 194.537C234.222 197.754 233.375 200.953 231.59 203.637H222.492C213.12 209.857 208.308 210.507 214.812 230.927C216.626 236.617 223.837 269.727 221 274.637C220.179 274.547 211.388 247.287 210.597 247.137C192.786 243.767 179.311 229.137 178.946 211.477C178.967 210.577 179.027 209.677 179.118 208.797C180.292 207.034 181.581 205.35 182.979 203.757C182.972 199.037 184.057 194.379 186.15 190.147C188.798 184.787 192.925 180.296 198.044 177.207C201.096 175.728 204.277 174.533 207.548 173.637C207.629 173.617 207.7 173.597 207.781 173.577C208.784 173.307 209.807 173.057 210.83 172.847C212.944 172.401 215.082 172.077 217.234 171.877C217.386 171.867 217.538 171.857 217.679 171.857C218.538 171.859 219.381 172.091 220.121 172.527C220.131 172.527 220.131 172.537 220.141 172.537C220.67 172.846 221.132 173.258 221.499 173.747C222.146 174.571 222.496 175.59 222.492 176.637H232.624C232.998 176.637 233.373 176.647 233.748 176.667C240.51 176.898 246.942 179.645 251.786 184.368C256.63 189.092 259.537 195.453 259.938 202.207C259.969 202.687 259.979 203.157 259.979 203.637Z" fill="#2F2E41"/>
<path d="M192 208.637C201.941 208.637 210 200.579 210 190.637C210 180.696 201.941 172.637 192 172.637C182.059 172.637 174 180.696 174 190.637C174 200.579 182.059 208.637 192 208.637Z" fill="#2F2E41"/>
<path d="M214 176.637C214.344 186.573 205.941 194.637 196 194.637C191.226 194.637 186.648 192.741 183.272 189.365C179.896 185.99 178 181.411 178 176.637C178 166.696 190.039 166.593 196 158.637C204.432 147.383 213.536 163.239 214 176.637Z" fill="#2F2E41"/>
<path d="M237.535 458.218C234.74 416.745 242.922 377.734 265.646 341.983C266.218 339.631 267.699 337.602 269.765 336.341C271.831 335.08 274.312 334.689 276.666 335.256L364.449 356.486C366.801 357.057 368.83 358.538 370.091 360.604C371.352 362.67 371.743 365.152 371.176 367.505L343.065 483.74C342.494 486.092 341.012 488.121 338.947 489.383C336.881 490.644 334.399 491.034 332.046 490.468L244.263 469.238C241.911 468.666 239.881 467.185 238.62 465.119C237.359 463.053 236.969 460.572 237.535 458.218V458.218Z" fill="#F2F2F2"/>
<path opacity="0.2" d="M254.738 467.026C252.386 466.455 250.357 464.973 249.096 462.908C247.834 460.842 247.444 458.36 248.01 456.007C245.215 414.533 253.398 375.522 276.121 339.772C276.504 338.229 277.288 336.815 278.393 335.673L276.665 335.255C274.312 334.689 271.83 335.079 269.765 336.341C267.699 337.602 266.218 339.631 265.646 341.983C242.922 377.733 234.74 416.745 237.535 458.218C236.969 460.571 237.359 463.053 238.62 465.119C239.881 467.185 241.91 468.666 244.262 469.237L332.046 490.468C333.606 490.839 335.237 490.792 336.773 490.33C338.31 489.869 339.697 489.009 340.794 487.839L254.738 467.026Z" fill="black"/>
<path d="M334.217 418.095L275.353 404.031C274.417 403.807 273.608 403.22 273.105 402.4C272.601 401.579 272.444 400.593 272.668 399.657C272.891 398.72 273.478 397.911 274.297 397.407C275.117 396.903 276.104 396.745 277.04 396.968L335.905 411.031C336.839 411.258 337.645 411.845 338.146 412.665C338.648 413.484 338.804 414.469 338.581 415.404C338.357 416.339 337.773 417.147 336.955 417.651C336.137 418.155 335.153 418.315 334.217 418.095L334.217 418.095Z" fill="white"/>
<path d="M292.931 387.756L279.981 384.662C279.044 384.44 278.234 383.856 277.728 383.037C277.223 382.219 277.063 381.233 277.283 380.296C277.504 379.359 278.087 378.549 278.905 378.042C279.723 377.535 280.709 377.374 281.646 377.593L281.668 377.599L294.618 380.693C295.552 380.919 296.358 381.506 296.86 382.326C297.361 383.146 297.517 384.131 297.294 385.065C297.071 386 296.486 386.808 295.668 387.312C294.851 387.817 293.866 387.976 292.931 387.756V387.756Z" fill="white"/>
<path d="M326.798 449.149L267.934 435.086C266.999 434.859 266.193 434.272 265.691 433.452C265.189 432.633 265.033 431.647 265.256 430.712C265.48 429.778 266.064 428.969 266.883 428.465C267.701 427.961 268.686 427.801 269.621 428.022L328.486 442.085C328.951 442.194 329.389 442.393 329.777 442.672C330.165 442.95 330.494 443.303 330.745 443.708C330.997 444.114 331.166 444.565 331.243 445.037C331.319 445.508 331.303 445.989 331.193 446.454C331.084 446.919 330.884 447.357 330.605 447.744C330.326 448.131 329.973 448.46 329.567 448.711C329.161 448.962 328.709 449.13 328.238 449.206C327.767 449.282 327.285 449.265 326.821 449.155L326.798 449.149Z" fill="white"/>
<path d="M330.508 433.622L271.643 419.558C270.706 419.336 269.896 418.75 269.391 417.93C268.886 417.11 268.727 416.123 268.95 415.186C269.173 414.249 269.758 413.439 270.578 412.934C271.398 412.429 272.386 412.27 273.322 412.493L273.331 412.495L332.196 426.558C333.13 426.784 333.936 427.372 334.438 428.192C334.94 429.011 335.096 429.997 334.873 430.931C334.65 431.866 334.065 432.675 333.247 433.179C332.428 433.683 331.443 433.843 330.508 433.622L330.508 433.622Z" fill="white"/>
<path d="M318.064 360.686C326.426 360.686 333.205 353.907 333.205 345.545C333.205 337.182 326.426 330.404 318.064 330.404C309.702 330.404 302.923 337.182 302.923 345.545C302.923 353.907 309.702 360.686 318.064 360.686Z" fill="#3F3D56"/>
<path d="M241.721 466.886C240.486 466.204 239.414 465.261 238.579 464.123C237.744 462.986 237.166 461.68 236.886 460.297C236.605 458.914 236.628 457.487 236.953 456.113C237.278 454.74 237.898 453.454 238.769 452.344L215.389 409.779L225.572 400.417L252.972 451.175C254.731 452.781 255.841 454.976 256.09 457.345C256.34 459.714 255.712 462.092 254.325 464.028C252.938 465.965 250.889 467.325 248.566 467.852C246.243 468.379 243.808 468.035 241.721 466.886H241.721Z" fill="#FFB6B6"/>
<path d="M214.412 278.472L189.266 276.046C188.092 275.932 186.909 276.066 185.79 276.437C184.671 276.809 183.643 277.41 182.77 278.202C181.898 278.995 181.201 279.961 180.724 281.038C180.246 282.116 180 283.282 180 284.46V359.293L226 443.637L245 431.637L215 357.637L214.412 278.472Z" fill="#B2D8F6"/>
<path d="M412.937 272.399C418.767 231.243 434.83 194.762 464.448 164.476C465.493 162.293 467.361 160.613 469.643 159.806C471.925 158.999 474.434 159.129 476.619 160.169L558.125 199.072C560.308 200.117 561.988 201.985 562.795 204.267C563.603 206.549 563.472 209.058 562.432 211.243L510.921 319.166C509.876 321.35 508.007 323.029 505.726 323.836C503.444 324.644 500.935 324.513 498.749 323.473L417.243 284.571C415.06 283.526 413.381 281.657 412.573 279.376C411.766 277.094 411.897 274.585 412.937 272.399V272.399Z" fill="#F2F2F2"/>
<path opacity="0.2" d="M427.95 284.571C425.766 283.526 424.087 281.657 423.28 279.375C422.472 277.094 422.603 274.585 423.643 272.399C429.474 231.243 445.537 194.762 475.154 164.476C475.847 163.046 476.906 161.824 478.223 160.935L476.619 160.169C474.434 159.129 471.925 158.999 469.643 159.806C467.361 160.613 465.493 162.293 464.448 164.476C434.83 194.762 418.767 231.243 412.937 272.399C411.897 274.585 411.766 277.094 412.573 279.375C413.381 281.657 415.06 283.526 417.243 284.571L498.749 323.473C500.199 324.159 501.805 324.45 503.403 324.315C505.002 324.181 506.537 323.626 507.852 322.707L427.95 284.571Z" fill="black"/>
<path d="M515.822 253.109L461.13 227.191C460.26 226.779 459.589 226.038 459.266 225.131C458.942 224.224 458.992 223.225 459.404 222.355C459.816 221.485 460.558 220.814 461.465 220.49C462.372 220.166 463.37 220.216 464.241 220.628L518.932 246.546C519.798 246.961 520.466 247.702 520.787 248.607C521.108 249.513 521.058 250.509 520.646 251.377C520.235 252.245 519.496 252.915 518.592 253.24C517.687 253.564 516.691 253.517 515.821 253.109L515.822 253.109Z" fill="white"/>
<path d="M481.691 214.898L469.659 209.196C469.227 208.993 468.839 208.707 468.517 208.355C468.196 208.002 467.947 207.59 467.785 207.141C467.623 206.692 467.551 206.216 467.573 205.739C467.595 205.262 467.711 204.795 467.914 204.363C468.117 203.931 468.403 203.544 468.756 203.222C469.109 202.901 469.521 202.653 469.97 202.491C470.419 202.329 470.896 202.258 471.373 202.28C471.849 202.303 472.317 202.419 472.748 202.623L472.769 202.633L484.801 208.335C485.668 208.749 486.336 209.49 486.658 210.396C486.98 211.302 486.93 212.298 486.518 213.167C486.106 214.035 485.367 214.705 484.462 215.03C483.557 215.354 482.561 215.307 481.691 214.898V214.898Z" fill="white"/>
<path d="M502.149 281.961L447.458 256.044C446.59 255.63 445.923 254.888 445.601 253.983C445.279 253.077 445.329 252.08 445.741 251.212C446.153 250.343 446.892 249.673 447.797 249.349C448.702 249.024 449.698 249.072 450.568 249.481L505.259 275.399C505.691 275.601 506.078 275.887 506.399 276.24C506.72 276.592 506.969 277.005 507.13 277.453C507.292 277.902 507.364 278.378 507.342 278.854C507.319 279.331 507.204 279.798 507.001 280.23C506.798 280.661 506.512 281.049 506.159 281.37C505.807 281.691 505.394 281.939 504.946 282.101C504.497 282.263 504.021 282.335 503.545 282.312C503.068 282.29 502.601 282.174 502.17 281.971L502.149 281.961Z" fill="white"/>
<path d="M508.985 267.535L454.294 241.618C453.423 241.206 452.752 240.466 452.427 239.559C452.102 238.652 452.15 237.654 452.562 236.783C452.973 235.912 453.714 235.241 454.62 234.916C455.527 234.591 456.526 234.639 457.396 235.051L457.404 235.055L512.095 260.972C512.962 261.387 513.63 262.128 513.951 263.034C514.273 263.939 514.222 264.935 513.811 265.804C513.399 266.672 512.66 267.342 511.756 267.667C510.851 267.991 509.855 267.944 508.985 267.535L508.985 267.535Z" fill="white"/>
<path d="M515 193.928C523.362 193.928 530.141 187.149 530.141 178.787C530.141 170.425 523.362 163.646 515 163.646C506.638 163.646 499.859 170.425 499.859 178.787C499.859 187.149 506.638 193.928 515 193.928Z" fill="#3F3D56"/>
<path d="M645.659 325.717C629.238 290.094 622.047 251.702 627.084 209.642C626.305 204.749 629.033 199.846 633.18 198.681L707.524 177.911C711.673 176.758 715.669 179.783 716.457 184.673L735.032 300.747C735.81 305.64 733.083 310.544 728.935 311.708L654.592 332.478C650.443 333.632 646.446 330.607 645.659 325.717Z" fill="#F2F2F2"/>
<path opacity="0.2" d="M661.829 325.78C657.68 326.933 653.684 323.908 652.896 319.018C636.475 283.395 629.285 245.003 634.321 202.944C634.083 201.382 634.193 199.787 634.643 198.273L633.181 198.681C629.033 199.846 626.306 204.749 627.083 209.642C622.047 251.702 629.238 290.094 645.659 325.716C646.447 330.607 650.443 333.632 654.592 332.478L728.935 311.708C730.351 311.233 731.623 310.407 732.633 309.307C733.642 308.207 734.357 306.869 734.709 305.418L661.829 325.78Z" fill="black"/>
<path d="M705.663 246.361L655.87 260.442C654.22 260.906 652.627 259.705 652.313 257.759C652.134 256.864 652.279 255.935 652.72 255.136C653.162 254.338 653.872 253.722 654.725 253.397L704.518 239.316C706.169 238.855 707.759 240.06 708.07 242.007C708.247 242.9 708.102 243.827 707.662 244.624C707.221 245.42 706.513 246.035 705.663 246.361H705.663Z" fill="white"/>
<path d="M663.686 238.027L652.731 241.125C651.082 241.598 649.485 240.405 649.164 238.461C648.982 237.566 649.123 236.634 649.564 235.833C650.004 235.032 650.714 234.413 651.568 234.086L651.587 234.08L662.541 230.983C664.192 230.522 665.782 231.727 666.093 233.674C666.27 234.567 666.125 235.494 665.685 236.29C665.244 237.087 664.536 237.702 663.686 238.027Z" fill="white"/>
<path d="M710.695 277.33L660.902 291.412C659.251 291.872 657.661 290.667 657.35 288.721C657.173 287.828 657.318 286.901 657.758 286.104C658.199 285.307 658.907 284.692 659.757 284.367L709.55 270.286C711.199 269.813 712.796 271.006 713.118 272.949C713.3 273.845 713.158 274.777 712.718 275.578C712.278 276.379 711.567 276.998 710.714 277.325L710.695 277.33Z" fill="white"/>
<path d="M708.179 261.846L658.386 275.927C656.736 276.396 655.141 275.199 654.823 273.255C654.643 272.359 654.786 271.428 655.227 270.627C655.669 269.827 656.38 269.209 657.234 268.884L657.241 268.882L707.034 254.801C708.685 254.34 710.275 255.545 710.586 257.492C710.763 258.385 710.618 259.312 710.178 260.109C709.737 260.905 709.029 261.521 708.179 261.846L708.179 261.846Z" fill="white"/>
<path d="M680.87 190.752C681.942 182.459 677.199 175.011 670.276 174.116C663.354 173.222 656.874 179.22 655.802 187.513C654.73 195.806 659.474 203.254 666.396 204.149C673.318 205.043 679.799 199.045 680.87 190.752Z" fill="#3F3D56"/>
</g>
<defs>
<clipPath id="clip0_139_154">
<rect width="735.165" height="684.285" fill="white"/>
</clipPath>
</defs>
</svg>
