<svg width="95" height="39" viewBox="0 0 95 39" fill="none" xmlns="http://www.w3.org/2000/svg">
<path fill-rule="evenodd" clip-rule="evenodd" d="M27.2127 21.817C27.3795 21.8864 27.5419 21.9645 27.7001 22.0512C28.5065 22.4864 29.1273 23.1072 29.5625 23.9136C30.0105 24.7072 30.2345 25.6224 30.2345 26.6592C30.2345 27.0432 30.2089 27.3888 30.1577 27.696H22.3817C22.4457 28.464 22.7145 29.0656 23.1881 29.5008C23.6617 29.936 24.2441 30.1536 24.9353 30.1536C25.9337 30.1536 26.6441 29.7248 27.0665 28.8672H29.9657C29.6585 29.8912 29.0697 30.736 28.1993 31.4016C27.3289 32.0544 26.2601 32.3808 24.9929 32.3808C23.9689 32.3808 23.0473 32.1568 22.2281 31.7088C21.4217 31.248 20.7881 30.6016 20.3273 29.7696C20.2001 29.5334 20.0909 29.2868 19.9998 29.0299L23.1385 25.8912H27.4505C27.4377 25.2 27.1881 24.6496 26.7017 24.24C26.3283 23.9157 25.8908 23.7159 25.3891 23.6406L27.2127 21.817ZM40.1453 32.1312L42.1805 34.5696H45.5213L42.4493 31.1136C43.3197 30.4992 44.0045 29.7056 44.5037 28.7328C45.0157 27.7472 45.2717 26.6592 45.2717 25.4688C45.2717 24.1632 44.9645 22.992 44.3501 21.9552C43.7485 20.9056 42.9229 20.0864 41.8733 19.4976C40.8365 18.9088 39.6845 18.6144 38.4173 18.6144C37.1629 18.6144 36.0109 18.9088 34.9613 19.4976C33.9117 20.0864 33.0797 20.9056 32.4653 21.9552C31.8509 22.992 31.5437 24.1632 31.5437 25.4688C31.5437 26.7872 31.8509 27.9712 32.4653 29.0208C33.0797 30.0576 33.9117 30.8704 34.9613 31.4592C36.0109 32.048 37.1629 32.3424 38.4173 32.3424C39.0061 32.3424 39.5821 32.272 40.1453 32.1312ZM34.8269 27.8304C34.4813 27.152 34.3085 26.3648 34.3085 25.4688C34.3085 24.5728 34.4813 23.792 34.8269 23.1264C35.1725 22.448 35.6525 21.9296 36.2669 21.5712C36.8941 21.2128 37.6109 21.0336 38.4173 21.0336C39.2237 21.0336 39.9341 21.2128 40.5485 21.5712C41.1629 21.9296 41.6429 22.448 41.9885 23.1264C42.3341 23.792 42.5069 24.5728 42.5069 25.4688C42.5069 26.3648 42.3341 27.152 41.9885 27.8304C41.6429 28.5088 41.1629 29.0336 40.5485 29.4048C39.9341 29.7632 39.2237 29.9424 38.4173 29.9424C37.6109 29.9424 36.8941 29.7632 36.2669 29.4048C35.6525 29.0336 35.1725 28.5088 34.8269 27.8304ZM57.3506 32.208V21.5712H54.6434V27.4272C54.6434 28.272 54.4322 28.9248 54.0098 29.3856C53.5874 29.8336 53.005 30.0576 52.2626 30.0576C51.533 30.0576 50.957 29.8336 50.5346 29.3856C50.1122 28.9248 49.901 28.272 49.901 27.4272V21.5712H47.213V27.8112C47.213 28.7584 47.3922 29.5776 47.7506 30.2688C48.1218 30.9472 48.6274 31.4656 49.2674 31.824C49.9074 32.1696 50.6434 32.3424 51.4754 32.3424C52.1282 32.3424 52.7298 32.2144 53.2802 31.9584C53.8434 31.6896 54.2978 31.3248 54.6434 30.864V32.208H57.3506ZM59.9451 23.9904C59.5227 24.8224 59.3115 25.776 59.3115 26.8512C59.3115 27.9392 59.5227 28.9056 59.9451 29.7504C60.3803 30.5824 60.9627 31.2288 61.6923 31.6896C62.4347 32.1504 63.2539 32.3808 64.1499 32.3808C64.9435 32.3808 65.6411 32.2208 66.2427 31.9008C66.8571 31.568 67.3371 31.152 67.6827 30.6528V32.208H70.3899V21.5712H67.6827V23.088C67.3243 22.6016 66.8443 22.1984 66.2427 21.8784C65.6539 21.5584 64.9627 21.3984 64.1691 21.3984C63.2603 21.3984 62.4347 21.6224 61.6923 22.0704C60.9627 22.5184 60.3803 23.1584 59.9451 23.9904ZM67.2987 25.2192C67.5547 25.68 67.6827 26.2368 67.6827 26.8896C67.6827 27.5424 67.5547 28.1056 67.2987 28.5792C67.0427 29.04 66.6971 29.3984 66.2619 29.6544C65.8267 29.8976 65.3595 30.0192 64.8603 30.0192C64.3739 30.0192 63.9131 29.8912 63.4779 29.6352C63.0555 29.3792 62.7099 29.0144 62.4411 28.5408C62.1851 28.0544 62.0571 27.4912 62.0571 26.8512C62.0571 26.2112 62.1851 25.6608 62.4411 25.2C62.7099 24.7264 63.0555 24.368 63.4779 24.1248C63.9003 23.8816 64.3611 23.76 64.8603 23.76C65.3595 23.76 65.8267 23.888 66.2619 24.144C66.6971 24.3872 67.0427 24.7456 67.2987 25.2192ZM75.7032 27.6768L79.3128 32.208H82.8072L78.084 26.9088L82.7688 21.5712H79.2744L75.7032 26.0832V18H73.0152V32.208H75.7032V27.6768ZM94.0389 27.696C94.0901 27.3888 94.1157 27.0432 94.1157 26.6592C94.1157 25.6224 93.8917 24.7072 93.4437 23.9136C93.0085 23.1072 92.3877 22.4864 91.5813 22.0512C90.7877 21.616 89.8853 21.3984 88.8741 21.3984C87.8245 21.3984 86.8965 21.6224 86.0901 22.0704C85.2837 22.5184 84.6565 23.1584 84.2085 23.9904C83.7605 24.8224 83.5365 25.7888 83.5365 26.8896C83.5365 27.9776 83.7605 28.9376 84.2085 29.7696C84.6693 30.6016 85.3029 31.248 86.1093 31.7088C86.9285 32.1568 87.8501 32.3808 88.8741 32.3808C90.1413 32.3808 91.2101 32.0544 92.0805 31.4016C92.9509 30.736 93.5397 29.8912 93.8469 28.8672H90.9477C90.5253 29.7248 89.8149 30.1536 88.8165 30.1536C88.1253 30.1536 87.5429 29.936 87.0693 29.5008C86.5957 29.0656 86.3269 28.464 86.2629 27.696H94.0389ZM90.5829 24.24C91.0693 24.6496 91.3189 25.2 91.3317 25.8912H86.2821C86.3845 25.1744 86.6597 24.6176 87.1077 24.2208C87.5685 23.8112 88.1317 23.6064 88.7973 23.6064C89.5013 23.6064 90.0965 23.8176 90.5829 24.24Z" fill="#111010"/>
<g filter="url(#filter0_d_98_24)">
<path d="M16.5 12L23.95 19.5L16.7001 26.75L18.1501 29.65L28.3 19.5L20.8 12L18.1501 9.35001L16.8251 12H16.5Z" fill="url(#paint0_linear_98_24)"/>
<path d="M20.8 12L18.1501 9.35001L16.8251 12H10L9 9H30L31 12H20.8Z" fill="url(#paint1_linear_98_24)"/>
</g>
<defs>
<filter id="filter0_d_98_24" x="0" y="0" width="40" height="38.65" filterUnits="userSpaceOnUse" color-interpolation-filters="sRGB">
<feFlood flood-opacity="0" result="BackgroundImageFix"/>
<feColorMatrix in="SourceAlpha" type="matrix" values="0 0 0 0 0 0 0 0 0 0 0 0 0 0 0 0 0 0 127 0" result="hardAlpha"/>
<feMorphology radius="3" operator="dilate" in="SourceAlpha" result="effect1_dropShadow_98_24"/>
<feOffset/>
<feGaussianBlur stdDeviation="3"/>
<feColorMatrix type="matrix" values="0 0 0 0 0.266667 0 0 0 0 0.678431 0 0 0 0 1 0 0 0 0.32 0"/>
<feBlend mode="normal" in2="BackgroundImageFix" result="effect1_dropShadow_98_24"/>
<feBlend mode="normal" in="SourceGraphic" in2="effect1_dropShadow_98_24" result="shape"/>
</filter>
<linearGradient id="paint0_linear_98_24" x1="20" y1="9" x2="20" y2="29.65" gradientUnits="userSpaceOnUse">
<stop stop-color="#44ADFF"/>
<stop offset="1" stop-color="#84C9FF"/>
</linearGradient>
<linearGradient id="paint1_linear_98_24" x1="20" y1="9" x2="20" y2="29.65" gradientUnits="userSpaceOnUse">
<stop stop-color="#44ADFF"/>
<stop offset="1" stop-color="#84C9FF"/>
</linearGradient>
</defs>
</svg>
